<svg width="102" height="33" viewBox="0 0 102 33" fill="none" xmlns="http://www.w3.org/2000/svg">
<path d="M3.87 17H1.746V4.418H5.058L8.856 12.32L12.654 4.418H15.948V17H13.824V7.172L9.432 15.902H8.244L3.87 7.172V17ZM28.2852 4.418V6.416H21.5712V9.746H27.6012V11.636H21.5712V15.002H28.5012V17H19.4472V4.418H28.2852ZM33.3485 17H31.2245V4.418H34.5365L38.3345 12.32L42.1325 4.418H45.4265V17H43.3025V7.172L38.9105 15.902H37.7225L33.3485 7.172V17ZM57.8897 7.388C57.0377 6.5 55.9877 6.056 54.7397 6.056C53.4917 6.056 52.4357 6.5 51.5717 7.388C50.7197 8.276 50.2937 9.356 50.2937 10.628C50.2937 11.888 50.7197 12.962 51.5717 13.85C52.4357 14.738 53.4917 15.182 54.7397 15.182C55.9877 15.182 57.0377 14.738 57.8897 13.85C58.7537 12.962 59.1857 11.888 59.1857 10.628C59.1857 9.356 58.7537 8.276 57.8897 7.388ZM59.4557 15.272C58.1837 16.508 56.6117 17.126 54.7397 17.126C52.8677 17.126 51.2957 16.508 50.0237 15.272C48.7517 14.024 48.1157 12.476 48.1157 10.628C48.1157 8.768 48.7517 7.22 50.0237 5.984C51.2957 4.736 52.8677 4.112 54.7397 4.112C56.6117 4.112 58.1837 4.736 59.4557 5.984C60.7277 7.22 61.3637 8.768 61.3637 10.628C61.3637 12.476 60.7277 14.024 59.4557 15.272Z" fill="white"/>
<path d="M64.72 12.288V13.824H67.2V14.696H64.72V17H63.776V11.408H67.504L67.496 12.288H64.72ZM68.6041 11.408H69.5481V17H68.6041V11.408ZM75.2883 11.408H76.2323V17H75.2083L72.0403 12.92V17H71.0963V11.408H72.0403L75.2883 15.584V11.408ZM78.5758 15.728L78.0158 17H77.0078L79.4718 11.408H80.4798L82.9438 17H81.9358L81.3758 15.728H78.5758ZM80.9918 14.856L79.9758 12.552L78.9598 14.856H80.9918ZM87.9133 11.408H88.8573V17H87.8333L84.6653 12.92V17H83.7213V11.408H84.6653L87.9133 15.584V11.408ZM92.9608 16.144C93.2861 16.144 93.5661 16.0907 93.8008 15.984C94.0355 15.872 94.2808 15.696 94.5368 15.456L95.1448 16.08C94.5528 16.736 93.8328 17.064 92.9848 17.064C92.1421 17.064 91.4408 16.792 90.8808 16.248C90.3261 15.704 90.0488 15.016 90.0488 14.184C90.0488 13.352 90.3315 12.6587 90.8968 12.104C91.4675 11.5493 92.1848 11.272 93.0488 11.272C93.9181 11.272 94.6435 11.592 95.2248 12.232L94.6248 12.888C94.3581 12.632 94.1048 12.4533 93.8648 12.352C93.6301 12.2507 93.3528 12.2 93.0328 12.2C92.4675 12.2 91.9928 12.384 91.6088 12.752C91.2248 13.1147 91.0328 13.5813 91.0328 14.152C91.0328 14.7173 91.2221 15.192 91.6008 15.576C91.9848 15.9547 92.4381 16.144 92.9608 16.144ZM100.227 11.408V12.296H97.2434V13.776H99.9234V14.616H97.2434V16.112H100.323V17H96.2994V11.408H100.227Z" fill="white"/>
<rect width="63" height="1" transform="matrix(1 0 0 -1 0 8)" fill="#44A1C2"/>
</svg>
