<svg width="112" height="33" viewBox="0 0 112 33" fill="none" xmlns="http://www.w3.org/2000/svg">
<path d="M3.87 17H1.746V4.418H5.058L8.856 12.32L12.654 4.418H15.948V17H13.824V7.172L9.432 15.902H8.244L3.87 7.172V17ZM28.2852 4.418V6.416H21.5712V9.746H27.6012V11.636H21.5712V15.002H28.5012V17H19.4472V4.418H28.2852ZM33.3485 17H31.2245V4.418H34.5365L38.3345 12.32L42.1325 4.418H45.4265V17H43.3025V7.172L38.9105 15.902H37.7225L33.3485 7.172V17ZM57.8897 7.388C57.0377 6.5 55.9877 6.056 54.7397 6.056C53.4917 6.056 52.4357 6.5 51.5717 7.388C50.7197 8.276 50.2937 9.356 50.2937 10.628C50.2937 11.888 50.7197 12.962 51.5717 13.85C52.4357 14.738 53.4917 15.182 54.7397 15.182C55.9877 15.182 57.0377 14.738 57.8897 13.85C58.7537 12.962 59.1857 11.888 59.1857 10.628C59.1857 9.356 58.7537 8.276 57.8897 7.388ZM59.4557 15.272C58.1837 16.508 56.6117 17.126 54.7397 17.126C52.8677 17.126 51.2957 16.508 50.0237 15.272C48.7517 14.024 48.1157 12.476 48.1157 10.628C48.1157 8.768 48.7517 7.22 50.0237 5.984C51.2957 4.736 52.8677 4.112 54.7397 4.112C56.6117 4.112 58.1837 4.736 59.4557 5.984C60.7277 7.22 61.3637 8.768 61.3637 10.628C61.3637 12.476 60.7277 14.024 59.4557 15.272Z" fill="white"/>
<path d="M66.328 16.144C66.6533 16.144 66.9333 16.0907 67.168 15.984C67.4027 15.872 67.648 15.696 67.904 15.456L68.512 16.08C67.92 16.736 67.2 17.064 66.352 17.064C65.5093 17.064 64.808 16.792 64.248 16.248C63.6933 15.704 63.416 15.016 63.416 14.184C63.416 13.352 63.6987 12.6587 64.264 12.104C64.8347 11.5493 65.552 11.272 66.416 11.272C67.2853 11.272 68.0107 11.592 68.592 12.232L67.992 12.888C67.7253 12.632 67.472 12.4533 67.232 12.352C66.9973 12.2507 66.72 12.2 66.4 12.2C65.8347 12.2 65.36 12.384 64.976 12.752C64.592 13.1147 64.4 13.5813 64.4 14.152C64.4 14.7173 64.5893 15.192 64.968 15.576C65.352 15.9547 65.8053 16.144 66.328 16.144ZM73.6506 12.728C73.272 12.3333 72.8053 12.136 72.2506 12.136C71.696 12.136 71.2266 12.3333 70.8426 12.728C70.464 13.1227 70.2746 13.6027 70.2746 14.168C70.2746 14.728 70.464 15.2053 70.8426 15.6C71.2266 15.9947 71.696 16.192 72.2506 16.192C72.8053 16.192 73.272 15.9947 73.6506 15.6C74.0346 15.2053 74.2266 14.728 74.2266 14.168C74.2266 13.6027 74.0346 13.1227 73.6506 12.728ZM74.3466 16.232C73.7813 16.7813 73.0826 17.056 72.2506 17.056C71.4186 17.056 70.72 16.7813 70.1546 16.232C69.5893 15.6773 69.3066 14.9893 69.3066 14.168C69.3066 13.3413 69.5893 12.6533 70.1546 12.104C70.72 11.5493 71.4186 11.272 72.2506 11.272C73.0826 11.272 73.7813 11.5493 74.3466 12.104C74.912 12.6533 75.1946 13.3413 75.1946 14.168C75.1946 14.9893 74.912 15.6773 74.3466 16.232ZM80.5774 11.408H81.5214V17H80.4974L77.3294 12.92V17H76.3854V11.408H77.3294L80.5774 15.584V11.408ZM85.1849 12.272V17H84.2409V12.272H82.5449V11.408H86.8809V12.272H85.1849ZM92.365 13.224C92.365 14.1467 91.9623 14.728 91.157 14.968L92.621 17H91.421L90.085 15.12H88.845V17H87.901V11.408H89.981C90.8343 11.408 91.445 11.552 91.813 11.84C92.181 12.128 92.365 12.5893 92.365 13.224ZM90.021 14.264C90.5543 14.264 90.917 14.1813 91.109 14.016C91.301 13.8507 91.397 13.5867 91.397 13.224C91.397 12.856 91.2983 12.6053 91.101 12.472C90.9037 12.3333 90.5517 12.264 90.045 12.264H88.845V14.264H90.021ZM97.7053 12.728C97.3266 12.3333 96.86 12.136 96.3053 12.136C95.7506 12.136 95.2813 12.3333 94.8973 12.728C94.5186 13.1227 94.3293 13.6027 94.3293 14.168C94.3293 14.728 94.5186 15.2053 94.8973 15.6C95.2813 15.9947 95.7506 16.192 96.3053 16.192C96.86 16.192 97.3266 15.9947 97.7053 15.6C98.0893 15.2053 98.2813 14.728 98.2813 14.168C98.2813 13.6027 98.0893 13.1227 97.7053 12.728ZM98.4013 16.232C97.836 16.7813 97.1373 17.056 96.3053 17.056C95.4733 17.056 94.7746 16.7813 94.2093 16.232C93.644 15.6773 93.3613 14.9893 93.3613 14.168C93.3613 13.3413 93.644 12.6533 94.2093 12.104C94.7746 11.5493 95.4733 11.272 96.3053 11.272C97.1373 11.272 97.836 11.5493 98.4013 12.104C98.9666 12.6533 99.2493 13.3413 99.2493 14.168C99.2493 14.9893 98.9666 15.6773 98.4013 16.232ZM100.44 17V11.408H101.384V16.104H103.936V17H100.44Z" fill="white"/>
<rect width="63" height="1" transform="matrix(1 0 0 -1 0 8)" fill="#44A1C2"/>
</svg>
