<svg width="82" height="33" viewBox="0 0 82 33" fill="none" xmlns="http://www.w3.org/2000/svg">
<path d="M3.87 17H1.746V4.418H5.058L8.856 12.32L12.654 4.418H15.948V17H13.824V7.172L9.432 15.902H8.244L3.87 7.172V17ZM28.2852 4.418V6.416H21.5712V9.746H27.6012V11.636H21.5712V15.002H28.5012V17H19.4472V4.418H28.2852ZM33.3485 17H31.2245V4.418H34.5365L38.3345 12.32L42.1325 4.418H45.4265V17H43.3025V7.172L38.9105 15.902H37.7225L33.3485 7.172V17ZM57.8897 7.388C57.0377 6.5 55.9877 6.056 54.7397 6.056C53.4917 6.056 52.4357 6.5 51.5717 7.388C50.7197 8.276 50.2937 9.356 50.2937 10.628C50.2937 11.888 50.7197 12.962 51.5717 13.85C52.4357 14.738 53.4917 15.182 54.7397 15.182C55.9877 15.182 57.0377 14.738 57.8897 13.85C58.7537 12.962 59.1857 11.888 59.1857 10.628C59.1857 9.356 58.7537 8.276 57.8897 7.388ZM59.4557 15.272C58.1837 16.508 56.6117 17.126 54.7397 17.126C52.8677 17.126 51.2957 16.508 50.0237 15.272C48.7517 14.024 48.1157 12.476 48.1157 10.628C48.1157 8.768 48.7517 7.22 50.0237 5.984C51.2957 4.736 52.8677 4.112 54.7397 4.112C56.6117 4.112 58.1837 4.736 59.4557 5.984C60.7277 7.22 61.3637 8.768 61.3637 10.628C61.3637 12.476 60.7277 14.024 59.4557 15.272Z" fill="white"/>
<path d="M63.776 16V10.408H64.72V15.104H67.272V16H63.776ZM69.0993 14.728L68.5393 16H67.5312L69.9953 10.408H71.0033L73.4673 16H72.4593L71.8993 14.728H69.0993ZM71.5153 13.856L70.4993 11.552L69.4833 13.856H71.5153ZM76.6928 16H74.2448V10.408H76.4208C76.7994 10.408 77.1248 10.4533 77.3968 10.544C77.6741 10.6347 77.8794 10.7573 78.0128 10.912C78.2688 11.2 78.3968 11.5253 78.3968 11.888C78.3968 12.3253 78.2581 12.6507 77.9808 12.864C77.8794 12.9387 77.8101 12.9867 77.7728 13.008C77.7354 13.024 77.6688 13.0533 77.5728 13.096C77.9194 13.1707 78.1941 13.328 78.3968 13.568C78.6048 13.8027 78.7088 14.096 78.7088 14.448C78.7088 14.8373 78.5754 15.1813 78.3088 15.48C77.9941 15.8267 77.4554 16 76.6928 16ZM75.1888 12.728H76.3888C77.0714 12.728 77.4128 12.496 77.4128 12.032C77.4128 11.7653 77.3301 11.5733 77.1648 11.456C76.9994 11.3387 76.7434 11.28 76.3968 11.28H75.1888V12.728ZM75.1888 15.128H76.6688C77.0154 15.128 77.2794 15.0747 77.4608 14.968C77.6474 14.856 77.7408 14.648 77.7408 14.344C77.7408 13.848 77.3434 13.6 76.5488 13.6H75.1888V15.128Z" fill="white"/>
<rect y="7" width="61" height="1" fill="#44A1C2"/>
</svg>
