<svg width="93" height="33" viewBox="0 0 93 33" fill="none" xmlns="http://www.w3.org/2000/svg">
<path d="M3.87 17H1.746V4.418H5.058L8.856 12.32L12.654 4.418H15.948V17H13.824V7.172L9.432 15.902H8.244L3.87 7.172V17ZM28.2852 4.418V6.416H21.5712V9.746H27.6012V11.636H21.5712V15.002H28.5012V17H19.4472V4.418H28.2852ZM33.3485 17H31.2245V4.418H34.5365L38.3345 12.32L42.1325 4.418H45.4265V17H43.3025V7.172L38.9105 15.902H37.7225L33.3485 7.172V17ZM57.8897 7.388C57.0377 6.5 55.9877 6.056 54.7397 6.056C53.4917 6.056 52.4357 6.5 51.5717 7.388C50.7197 8.276 50.2937 9.356 50.2937 10.628C50.2937 11.888 50.7197 12.962 51.5717 13.85C52.4357 14.738 53.4917 15.182 54.7397 15.182C55.9877 15.182 57.0377 14.738 57.8897 13.85C58.7537 12.962 59.1857 11.888 59.1857 10.628C59.1857 9.356 58.7537 8.276 57.8897 7.388ZM59.4557 15.272C58.1837 16.508 56.6117 17.126 54.7397 17.126C52.8677 17.126 51.2957 16.508 50.0237 15.272C48.7517 14.024 48.1157 12.476 48.1157 10.628C48.1157 8.768 48.7517 7.22 50.0237 5.984C51.2957 4.736 52.8677 4.112 54.7397 4.112C56.6117 4.112 58.1837 4.736 59.4557 5.984C60.7277 7.22 61.3637 8.768 61.3637 10.628C61.3637 12.476 60.7277 14.024 59.4557 15.272Z" fill="white"/>
<path d="M65.464 12.144C65.192 12.144 64.968 12.2 64.792 12.312C64.616 12.424 64.528 12.5947 64.528 12.824C64.528 13.048 64.616 13.2213 64.792 13.344C64.968 13.4613 65.3413 13.5893 65.912 13.728C66.488 13.8667 66.92 14.0613 67.208 14.312C67.5013 14.5627 67.648 14.9333 67.648 15.424C67.648 15.9093 67.464 16.304 67.096 16.608C66.728 16.912 66.2453 17.064 65.648 17.064C64.7733 17.064 63.9973 16.7627 63.32 16.16L63.912 15.448C64.4773 15.9387 65.064 16.184 65.672 16.184C65.976 16.184 66.216 16.12 66.392 15.992C66.5733 15.8587 66.664 15.6853 66.664 15.472C66.664 15.2533 66.5787 15.0853 66.408 14.968C66.2427 14.8453 65.9547 14.736 65.544 14.64C65.1333 14.5387 64.8213 14.448 64.608 14.368C64.3947 14.2827 64.2053 14.1733 64.04 14.04C63.7093 13.7893 63.544 13.4053 63.544 12.888C63.544 12.3707 63.7307 11.9733 64.104 11.696C64.4827 11.4133 64.9493 11.272 65.504 11.272C65.8613 11.272 66.216 11.3307 66.568 11.448C66.92 11.5653 67.224 11.7307 67.48 11.944L66.976 12.656C66.8107 12.5067 66.5867 12.384 66.304 12.288C66.0213 12.192 65.7413 12.144 65.464 12.144ZM68.8151 17V11.408H69.7591V13.832H72.5351V11.408H73.4791V17H72.5351V14.712H69.7591V17H68.8151ZM75.8258 15.728L75.2658 17H74.2578L76.7218 11.408H77.7298L80.1938 17H79.1858L78.6258 15.728H75.8258ZM78.2418 14.856L77.2258 12.552L76.2098 14.856H78.2418ZM85.4353 13.224C85.4353 14.1467 85.0326 14.728 84.2273 14.968L85.6913 17H84.4913L83.1553 15.12H81.9153V17H80.9713V11.408H83.0513C83.9046 11.408 84.5153 11.552 84.8833 11.84C85.2513 12.128 85.4353 12.5893 85.4353 13.224ZM83.0913 14.264C83.6246 14.264 83.9873 14.1813 84.1793 14.016C84.3713 13.8507 84.4673 13.5867 84.4673 13.224C84.4673 12.856 84.3686 12.6053 84.1713 12.472C83.974 12.3333 83.622 12.264 83.1153 12.264H81.9153V14.264H83.0913ZM90.7196 11.408V12.296H87.7356V13.776H90.4156V14.616H87.7356V16.112H90.8156V17H86.7916V11.408H90.7196Z" fill="white"/>
<rect width="63" height="1" transform="matrix(1 0 0 -1 0 8)" fill="#44A1C2"/>
</svg>
